<?xml version="1.0" encoding="UTF-8"?>
<svg xmlns="http://www.w3.org/2000/svg" width="1280" height="800" viewBox="0 0 1280 800" font-family="Inter, Hiragino Sans, Noto Sans JP, sans-serif">
  <rect width="1280" height="800" fill="#E8EEF6"/>
  <rect x="0" y="0" width="224" height="800" fill="#E8EEF6" stroke="#D9E1EE"/>
  <path d="M18 30c-4.2 0-7.6-3.2-7.6-7.2 0-3.4 2.4-6.3 5.6-7C17 12.4 20.4 9.8 24.6 9.8c3.7 0 6.9 1.9 8.6 4.8 3.9.4 6.9 3.5 6.9 7.3 0 4-3.4 7.1-7.5 7.1H18z" fill="#2A3548"/>
  <path d="M36.2 6.2l.9 2.8 2.8.9-2.8.9-.9 2.8-.9-2.8-2.8-.9 2.8-.9z" fill="#9BB7E8"/>
  <text x="48" y="28" font-size="13" fill="#1C2433" font-weight="500">アイデアクラウド</text>
  <rect x="188" y="14" width="22" height="22" rx="5" fill="none" stroke="#5C677A"/>
  <path d="M199 19v12M193 25h12" stroke="#5C677A" stroke-width="1.5" stroke-linecap="round"/>
  <rect x="10" y="56" width="204" height="30" rx="6" fill="#ffffff" stroke="#D9E1EE"/>
  <text x="32" y="76" font-size="13" fill="#1C2433" font-weight="500">アイデア</text>
  <text x="32" y="748" font-size="13" fill="#5C677A">設定</text>
  <circle cx="28" cy="776" r="10" fill="#ffffff" stroke="#D9E1EE"/>
  <text x="46" y="780" font-size="12" fill="#1C2433">ログイン中</text>
  <rect x="224" y="0" width="1056" height="800" fill="#F5F7FB"/>
  <text x="248" y="40" font-size="15" fill="#1C2433" font-weight="500">アイデア</text>
  <rect x="248" y="56" width="72" height="26" rx="6" fill="#E4EBF6" stroke="#D9E1EE"/>
  <text x="284" y="74" font-size="12" fill="#1C2433" text-anchor="middle">一覧</text>
  <rect x="328" y="56" width="72" height="26" rx="6" fill="#ffffff" stroke="#D9E1EE"/>
  <text x="364" y="74" font-size="12" fill="#5C677A" text-anchor="middle">看板</text>
  <rect x="412" y="56" width="220" height="26" rx="6" fill="#ffffff" stroke="#D9E1EE"/>
  <text x="424" y="74" font-size="12" fill="#5C677A">検索</text>
  <rect x="248" y="100" width="200" height="660" rx="6" fill="#ffffff" stroke="#D9E1EE"/>
  <text x="264" y="128" font-size="13" fill="#1C2433" font-weight="500">フィルタ</text>
  <text x="264" y="156" font-size="11" fill="#5C677A">段階</text>
  <text x="264" y="180" font-size="13" fill="#1C2433">着想</text>
  <text x="264" y="204" font-size="13" fill="#1C2433">熟成中</text>
  <rect x="464" y="100" width="776" height="660" rx="6" fill="#ffffff" stroke="#D9E1EE"/>
  <rect x="464" y="100" width="776" height="36" fill="#EEF2F8"/>
  <text x="484" y="124" font-size="11" fill="#5C677A">タイトル</text>
  <text x="760" y="124" font-size="11" fill="#5C677A">段階</text>
  <text x="900" y="124" font-size="11" fill="#5C677A">タグ</text>
  <text x="1040" y="124" font-size="11" fill="#5C677A">経過</text>
  <text x="852" y="430" font-size="13" fill="#5C677A" text-anchor="middle">まだありません</text>
</svg>
