<?xml version="1.0" encoding="UTF-8"?>
<svg xmlns="http://www.w3.org/2000/svg" width="390" height="844" viewBox="0 0 390 844" font-family="Inter, Hiragino Sans, Noto Sans JP, sans-serif">
  <!-- Token sketch of shipped mobile detail. Not a Claude Design frame (pack has list + compose only). -->
  <rect width="390" height="844" fill="#FFFFFF"/>
  <text x="16" y="36" font-size="13.5" fill="#687280">戻る</text>
  <rect x="310" y="14" width="64" height="32" rx="6" fill="#FFFFFF" stroke="#E3E6EC"/>
  <text x="342" y="35" font-size="13.5" fill="#15181D" text-anchor="middle">編集</text>
  <rect x="16" y="64" width="52" height="22" rx="11" fill="#F3F0FF"/>
  <text x="42" y="79" font-size="11" fill="#6D28D9" text-anchor="middle">着想</text>
  <text x="78" y="79" font-size="11.5" fill="#687280" font-family="IBM Plex Mono, ui-monospace, monospace">熟成 0日</text>
  <text x="16" y="120" font-size="22" fill="#15181D" font-weight="500">タイトルは折り返す</text>
  <text x="16" y="154" font-size="15" fill="#687280">本文。プリセットやレールは開かない。</text>
  <rect x="16" y="176" width="44" height="22" rx="11" fill="#F4F5F8"/>
  <text x="38" y="191" font-size="11" fill="#687280" text-anchor="middle">棚</text>
  <rect x="16" y="216" width="232" height="44" rx="6" fill="#3B6EF6"/>
  <text x="132" y="243" font-size="13.5" fill="#FFFFFF" font-weight="500" text-anchor="middle">次の段階へ</text>
  <rect x="256" y="216" width="118" height="44" rx="6" fill="#FFFFFF" stroke="#E3E6EC"/>
  <text x="315" y="243" font-size="13.5" fill="#15181D" font-weight="500" text-anchor="middle">AI</text>
  <rect x="16" y="276" width="44" height="44" rx="6" fill="#15181D"/>
  <text x="38" y="303" font-size="13.5" fill="#FFFFFF" text-anchor="middle">1</text>
  <rect x="66" y="276" width="44" height="44" rx="6" fill="#FFFFFF" stroke="#E3E6EC"/>
  <text x="88" y="303" font-size="13.5" fill="#15181D" text-anchor="middle">2</text>
  <rect x="116" y="276" width="44" height="44" rx="6" fill="#FFFFFF" stroke="#E3E6EC"/>
  <text x="138" y="303" font-size="13.5" fill="#15181D" text-anchor="middle">3</text>
  <rect x="166" y="276" width="44" height="44" rx="6" fill="#FFFFFF" stroke="#E3E6EC"/>
  <text x="188" y="303" font-size="13.5" fill="#15181D" text-anchor="middle">4</text>
  <rect x="216" y="276" width="44" height="44" rx="6" fill="#FFFFFF" stroke="#E3E6EC"/>
  <text x="238" y="303" font-size="13.5" fill="#15181D" text-anchor="middle">5</text>
  <text x="16" y="348" font-size="15" fill="#15181D" font-weight="500">コメント</text>
  <text x="88" y="348" font-size="11.5" fill="#687280" font-family="IBM Plex Mono, ui-monospace, monospace">0</text>
  <rect x="16" y="364" width="358" height="72" rx="6" fill="#FFFFFF" stroke="#E3E6EC"/>
  <text x="28" y="406" font-size="13.5" fill="#687280">いまの観点・気づき</text>
  <rect x="0" y="772" width="390" height="72" fill="#FFFFFF" stroke="#E9EBEF"/>
  <text x="65" y="808" font-size="16" fill="#15181D" text-anchor="middle">≡</text>
  <text x="65" y="832" font-size="10" fill="#15181D" font-weight="500" text-anchor="middle">一覧</text>
  <circle cx="195" cy="800" r="16" fill="#3B6EF6"/>
  <path d="M195 794 v12 M189 800 h12" stroke="#ffffff" stroke-width="1.75" stroke-linecap="round"/>
  <text x="195" y="832" font-size="10" fill="#15181D" font-weight="500" text-anchor="middle">新規</text>
  <text x="325" y="808" font-size="14" fill="#687280" text-anchor="middle">⚙</text>
  <text x="325" y="832" font-size="10" fill="#687280" text-anchor="middle">設定</text>
</svg>
